<svg xmlns="http://www.w3.org/2000/svg" id="svg81" viewBox="0 0 159.998 42.066" height="32" width="121" clip-rule="evenodd" fill-rule="evenodd" image-rendering="optimizeQuality" shape-rendering="geometricPrecision" text-rendering="geometricPrecision"><defs id="defs12"><style id="style10">.str1{stroke:#fefefe;stroke-width:8.24803}.fil0,.fil4{fill:#04475c;fill-rule:nonzero}.fil4{fill:#fefefe}</style></defs><g transform="translate(-16.5 -16.962) scale(.03073)" id="Capa_x0020_1"><g id="_339091848"><path id="polygon15" class="fil0" d="M5744 552v1235H539V552z"/><path id="polygon17" class="fil0" d="M5744 1817v104H537v-104z"/><path id="path19" d="M1960 1167c0 253-205 458-458 458s-458-205-458-458 205-458 458-458 458 205 458 458z" fill="#004b69" fill-rule="nonzero" stroke="#fefefe" stroke-width="14.303"/><g id="g23"><path id="path21" d="M1146 1106c-3 0-5 0-8-1-17-4-27-22-23-39 18-69 54-133 105-183 50-50 113-86 181-104 17-4 34 6 39 23 4 17-6 34-23 39-58 15-110 46-152 88-43 43-73 96-88 154-4 14-17 24-31 24z" fill="#f68e34" fill-rule="nonzero"/></g><g id="g27"><path id="path25" d="M1596 1556c-14 0-27-10-31-24-4-17 6-34 23-39 58-15 112-45 154-88 42-42 73-95 88-152 4-17 22-27 39-23s27 22 23 39c-18 68-54 131-104 181-51 51-114 87-183 105-3 1-5 1-8 1z" fill="#00afef" fill-rule="nonzero"/></g><g id="g35"><path id="path29" d="M1385 1051c14 12 22 28 22 49 0 13-4 25-12 36s-18 18-29 22v1c0-1 5 1 15 6s19 12 26 21c8 9 12 21 12 36 0 51-33 76-99 76h-65c-4 0-7-1-9-3s-3-5-3-9v-242c0-4 1-7 3-9s5-3 9-3h68c28 0 48 6 63 18zm-109 11v85h44c15 0 27-4 37-13s15-19 15-31c0-14-4-25-13-31-9-7-22-10-41-10zm0 114v93h55c17 0 30-4 39-13s14-21 14-36c0-14-5-25-15-33s-24-12-44-12h-49z" class="fil4"/><path id="path31" d="M1599 1035c1 2 2 5 2 9v6c0 4-1 7-2 9s-3 3-6 3h-63v228c0 6-5 8-15 8h-3c-10 0-15-3-15-8v-228h-63c-3 0-4-1-6-3-1-2-2-5-2-9v-6c0-4 1-7 2-9s3-3 6-3h159c3 0 5 1 6 3z" class="fil4"/><path id="path33" d="M1803 1035c1 2 2 5 2 9v6c0 4-1 7-2 9s-3 3-6 3h-132v86h125c3 0 5 1 6 3s2 5 2 9v6c0 4-1 7-2 9s-3 3-6 3h-125v113c0 6-5 8-15 8h-3c-10 0-15-3-15-8v-246c0-4 1-7 3-9s5-3 9-3h154c3 0 5 1 6 3z" class="fil4"/></g><path id="path37" d="M2338 848c15 13 23 30 23 52 0 13-4 26-13 38s-19 20-31 23v2c0-1 5 1 16 6 10 5 20 12 28 22s13 22 13 38c0 53-35 80-105 80h-69c-4 0-7-1-9-3s-3-5-3-9V842c0-4 1-7 3-9s5-3 9-3h72c29 0 52 6 67 19zm-116 11v90h47c16 0 29-4 40-14 10-9 16-20 16-33 0-15-5-26-14-33s-24-11-44-11h-45zm0 121v98h59c18 0 31-5 41-14s15-22 15-38c0-15-5-26-16-35-11-8-26-12-47-12h-52z" class="fil4 str1"/><path id="path39" d="M2523 834l96 263c1 2 1 4 1 5 0 5-6 7-17 7h-3c-9 0-15-2-16-6l-24-65h-119l-23 65c-1 4-7 6-16 6h-2c-12 0-17-2-17-7 0-1 0-3 1-6l96-262c1-4 7-6 16-6h12c9 0 15 2 16 6zm-23 30c-2 11-4 18-6 23l-42 119h96l-42-119c-1-4-3-12-5-23z" class="fil4 str1"/><path id="path41" d="M2869 836v263c0 6-5 9-16 9h-8c-7 0-12-2-14-6l-133-199-11-20v216c0 6-5 9-16 9h-3c-11 0-16-3-16-9V836c0-6 5-9 16-9h8c4 0 8 1 10 2s5 3 7 6l129 192 12 22V835c0-6 5-9 16-9h3c11 0 16 3 16 9z" class="fil4 str1"/><path id="path43" d="M3074 830c12 3 22 6 29 10s11 8 11 11c0 4-2 8-5 14s-6 9-9 9c-1 0-4-2-10-5s-13-6-22-9-19-4-30-4c-33 0-56 9-72 27-15 18-23 46-23 85 0 38 8 66 23 84s39 27 70 27c13 0 24-2 34-5 9-3 19-7 28-12 4-2 6-4 8-4s5 3 9 9c3 6 5 10 5 13 0 4-4 8-11 12-8 5-18 8-31 12-13 3-27 5-41 5-44 0-77-11-98-35-21-23-32-59-32-108 0-95 44-142 131-142 13 0 25 1 37 4z" class="fil4 str1"/><path id="path45" d="M3364 862c21 24 32 59 32 106s-11 82-32 106-52 37-93 37c-40 0-71-12-92-37-21-24-32-60-32-106 0-47 11-82 32-106s52-36 93-36 72 12 93 36zm-158 23c-15 19-22 46-22 83s7 65 22 84 37 29 65 29c29 0 50-10 65-29s23-47 23-84c0-36-8-64-23-83s-37-28-65-28-50 9-65 28z" class="fil4 str1"/><path id="path47" d="M3719 862c23 22 34 58 34 106 0 49-11 84-34 107-23 22-53 33-91 33h-81c-4 0-7-1-9-3s-3-5-3-9V841c0-4 1-7 3-9s5-3 9-3h81c38 0 68 11 91 33zm-149-3v219h55c27 0 49-9 66-26 17-18 25-45 25-83 0-37-8-65-25-83s-39-27-66-27z" class="fil4 str1"/><path id="path49" d="M3965 831c1 2 2 5 2 9v6c0 4-1 7-2 9s-3 3-6 3h-117v91h105c3 0 5 1 6 3s2 5 2 9v6c0 4-1 7-2 9s-3 3-6 3h-105v97h118c3 0 5 1 6 3s2 5 2 9v6c0 4-1 7-2 9s-3 3-6 3h-141c-4 0-7-1-9-3s-3-5-3-9V839c0-4 1-7 3-9s5-3 9-3h141c3 0 5 1 6 3z" class="fil4 str1"/><path id="path51" d="M2391 1228c1 2 2 5 2 9v6c0 4-1 7-2 9s-3 3-6 3h-76v241c0 6-5 9-16 9h-3c-11 0-16-3-16-9v-241h-77c-3 0-5-1-6-3s-2-5-2-9v-6c0-4 1-7 2-9s3-3 6-3h189c3 0 5 1 6 3z" class="fil4 str1"/><path id="path53" d="M2466 1233v263c0 6-5 9-16 9h-3c-11 0-16-3-16-9v-263c0-6 5-9 16-9h3c11 0 16 3 16 9z" class="fil4 str1"/><path id="path55" d="M2681 1228c1 2 2 5 2 9v6c0 4-1 7-2 9s-3 3-6 3h-117v91h105c3 0 5 1 6 3s2 5 2 9v6c0 4-1 7-2 9s-3 3-6 3h-105v97h118c3 0 5 1 6 3s2 5 2 9v6c0 4-1 7-2 9s-3 3-6 3h-141c-4 0-7-1-9-3s-3-5-3-9v-255c0-4 1-7 3-9s5-3 9-3h141c3 0 5 1 6 3z" class="fil4 str1"/><path id="path57" d="M2886 1242c16 11 24 29 24 54 0 17-4 30-12 42-8 11-19 20-34 26v2c8 3 14 8 20 16 5 8 11 19 17 34l31 79c1 2 1 4 1 6 0 4-6 6-17 6h-4c-4 0-8-1-11-2s-5-3-6-5l-31-78c-6-15-13-25-22-31-9-5-22-8-38-8h-36v115c0 6-5 9-16 9h-3c-11 0-16-3-16-9v-259c0-4 1-7 3-9s5-3 9-3h68c32 0 57 6 73 17zm-117 13v96h53c9 0 18-2 26-7s14-10 19-18c5-7 7-16 7-24 0-16-5-27-15-35s-23-12-40-12z" class="fil4 str1"/><path id="path59" d="M3122 1242c16 11 24 29 24 54 0 17-4 30-12 42-8 11-19 20-34 26v2c8 3 14 8 20 16 5 8 11 19 17 34l31 79c1 2 1 4 1 6 0 4-6 6-17 6h-4c-4 0-8-1-10-2-3-1-5-3-6-5l-31-78c-6-15-13-25-22-31-9-5-22-8-38-8h-36v115c0 6-5 9-16 9h-3c-11 0-16-3-16-9v-259c0-4 1-7 3-9s5-3 9-3h68c32 0 57 6 73 17zm-117 13v96h53c9 0 18-2 26-7s14-10 19-18c5-7 7-16 7-24 0-16-5-27-15-35s-23-12-40-12z" class="fil4 str1"/><path id="path61" d="M3336 1231l96 263c1 2 1 4 1 5 0 5-6 7-17 7h-3c-9 0-15-2-16-6l-24-65h-119l-23 65c-1 4-7 6-16 6h-2c-12 0-17-2-17-7 0-1 0-3 1-6l96-262c1-4 7-6 16-6h12c9 0 15 2 16 6zm-23 30c-2 11-4 18-6 23l-42 119h96l-42-119c-1-4-3-12-5-23z" class="fil4 str1"/><path id="path63" d="M3723 1258c23 22 34 58 34 106 0 49-11 84-34 107-23 22-53 33-91 33h-81c-4 0-7-1-9-3s-3-5-3-9v-255c0-4 1-7 3-9s5-3 9-3h81c38 0 68 11 91 33zm-149-3v219h55c27 0 49-9 66-26 17-18 25-45 25-83s-8-65-25-83-39-27-66-27z" class="fil4 str1"/><path id="path65" d="M3969 1228c1 2 2 5 2 9v6c0 4-1 7-2 9s-3 3-6 3h-117v91h105c3 0 5 1 6 3s2 5 2 9v6c0 4-1 7-2 9s-3 3-6 3h-105v97h118c3 0 5 1 6 3s2 5 2 9v6c0 4-1 7-2 9s-3 3-6 3h-141c-4 0-7-1-9-3s-3-5-3-9v-255c0-4 1-7 3-9s5-3 9-3h141c3 0 5 1 6 3z" class="fil4 str1"/><path id="path67" d="M4057 1233v241h111c3 0 5 1 6 3s2 5 2 9v6c0 4-1 7-2 9s-3 3-6 3h-134c-4 0-7-1-9-3s-3-5-3-9v-259c0-6 5-9 16-9h3c11 0 16 3 16 9z" class="fil4 str1"/><path id="path69" d="M4453 1228c1 2 2 5 2 9v6c0 4-1 7-2 9s-3 3-6 3h-104v91h96c3 0 5 1 6 3s2 5 2 9v6c0 4-1 7-2 9s-3 3-6 3h-96v120c0 6-5 9-16 9h-3c-11 0-16-3-16-9v-259c0-4 1-7 3-9s5-3 9-3h127c3 0 5 1 6 3z" class="fil4 str1"/><path id="path71" d="M4715 1233v182c0 29-10 52-29 68s-46 24-81 24c-36 0-63-8-82-24s-28-39-28-68v-182c0-6 5-9 16-9h3c11 0 16 3 16 9v183c0 12 3 22 10 31 6 9 15 16 27 21 11 5 24 8 38 8s27-3 38-8 20-12 27-22c6-9 10-19 10-31v-183c0-6 5-9 16-9h3c11 0 16 3 16 9z" class="fil4 str1"/><path id="path73" d="M4922 1228c1 2 2 5 2 9v6c0 4-1 7-2 9s-3 3-6 3h-117v91h105c3 0 5 1 6 3s2 5 2 9v6c0 4-1 7-2 9s-3 3-6 3h-105v97h118c3 0 5 1 6 3s2 5 2 9v6c0 4-1 7-2 9s-3 3-6 3h-141c-4 0-7-1-9-3s-3-5-3-9v-255c0-4 1-7 3-9s5-3 9-3h141c3 0 5 1 6 3z" class="fil4 str1"/><path id="path75" d="M5125 1227c12 3 22 6 29 10s11 8 11 11c0 4-2 9-5 14-3 6-6 9-9 9-1 0-4-2-10-5s-13-6-22-9-19-4-30-4c-34 0-58 9-73 28s-22 46-22 83c0 35 7 62 20 82s37 31 70 31c10 0 20 0 29-1 10-1 17-2 23-4v-81h-47c-3 0-5-1-6-3s-2-5-2-9v-6c0-4 1-7 2-9s3-3 6-3h71c4 0 7 1 9 3s3 5 3 9v106c0 10-8 18-25 22s-38 7-65 7c-41 0-71-12-93-35-21-23-32-58-32-105 0-96 44-144 131-144 13 0 25 1 37 4z" class="fil4 str1"/><path id="path77" d="M5437 1258c21 24 32 59 32 106s-11 82-32 106-52 37-93 37c-40 0-71-12-92-37-21-24-32-60-32-106 0-47 11-82 32-106s52-36 93-36 72 12 93 36zm-158 23c-15 19-22 46-22 83s7 65 22 84 37 29 65 29c29 0 50-10 65-29s23-47 23-84c0-36-8-64-23-83s-37-28-65-28-50 9-65 28z" class="fil4 str1"/></g></g></svg>